<mxfile host="app.diagrams.net" modified="2023-08-06T03:20:09.649Z" agent="Mozilla/5.0 (Macintosh; Intel Mac OS X 10_15_7) AppleWebKit/537.36 (KHTML, like Gecko) Chrome/115.0.0.0 Safari/537.36" etag="-NmHU8XyMjPkXfzX3kHX" version="21.6.6" type="github">
  <diagram id="kzaMuW4ObIcSFCtCtGG3" name="第 1 页">
    <mxGraphModel dx="954" dy="541" grid="1" gridSize="10" guides="1" tooltips="1" connect="1" arrows="1" fold="1" page="1" pageScale="1" pageWidth="1654" pageHeight="2336" math="0" shadow="0">
      <root>
        <mxCell id="0" />
        <mxCell id="1" parent="0" />
        <mxCell id="LKOx65WNBInHvOir7Cke-1" value="&lt;font style=&quot;font-size: 21px;&quot;&gt;可扩展哈希&lt;/font&gt;" style="text;html=1;strokeColor=none;fillColor=none;align=center;verticalAlign=middle;whiteSpace=wrap;rounded=0;" parent="1" vertex="1">
          <mxGeometry x="260" y="160" width="210" height="70" as="geometry" />
        </mxCell>
        <mxCell id="LKOx65WNBInHvOir7Cke-11" value="" style="edgeStyle=orthogonalEdgeStyle;rounded=0;orthogonalLoop=1;jettySize=auto;html=1;fontSize=21;" parent="1" source="LKOx65WNBInHvOir7Cke-4" target="LKOx65WNBInHvOir7Cke-10" edge="1">
          <mxGeometry relative="1" as="geometry" />
        </mxCell>
        <mxCell id="LKOx65WNBInHvOir7Cke-4" value="bucket[0]" style="rounded=0;whiteSpace=wrap;html=1;fontSize=21;" parent="1" vertex="1">
          <mxGeometry x="305" y="230" width="115" height="30" as="geometry" />
        </mxCell>
        <mxCell id="LKOx65WNBInHvOir7Cke-25" value="" style="edgeStyle=orthogonalEdgeStyle;rounded=0;orthogonalLoop=1;jettySize=auto;html=1;fontSize=21;" parent="1" source="LKOx65WNBInHvOir7Cke-5" target="LKOx65WNBInHvOir7Cke-21" edge="1">
          <mxGeometry relative="1" as="geometry" />
        </mxCell>
        <mxCell id="LKOx65WNBInHvOir7Cke-5" value="bucket[1]" style="rounded=0;whiteSpace=wrap;html=1;fontSize=21;" parent="1" vertex="1">
          <mxGeometry x="305" y="260" width="115" height="30" as="geometry" />
        </mxCell>
        <mxCell id="LKOx65WNBInHvOir7Cke-38" style="edgeStyle=orthogonalEdgeStyle;rounded=0;orthogonalLoop=1;jettySize=auto;html=1;exitX=1;exitY=0.5;exitDx=0;exitDy=0;entryX=0;entryY=0.5;entryDx=0;entryDy=0;fontSize=21;" parent="1" source="LKOx65WNBInHvOir7Cke-6" target="LKOx65WNBInHvOir7Cke-29" edge="1">
          <mxGeometry relative="1" as="geometry" />
        </mxCell>
        <mxCell id="LKOx65WNBInHvOir7Cke-6" value="bucket[2]" style="rounded=0;whiteSpace=wrap;html=1;fontSize=21;" parent="1" vertex="1">
          <mxGeometry x="305" y="290" width="115" height="30" as="geometry" />
        </mxCell>
        <mxCell id="LKOx65WNBInHvOir7Cke-39" style="edgeStyle=orthogonalEdgeStyle;rounded=0;orthogonalLoop=1;jettySize=auto;html=1;exitX=1;exitY=0.5;exitDx=0;exitDy=0;entryX=0;entryY=0.5;entryDx=0;entryDy=0;fontSize=21;" parent="1" source="LKOx65WNBInHvOir7Cke-7" target="LKOx65WNBInHvOir7Cke-32" edge="1">
          <mxGeometry relative="1" as="geometry" />
        </mxCell>
        <mxCell id="LKOx65WNBInHvOir7Cke-7" value="[3]" style="rounded=0;whiteSpace=wrap;html=1;fontSize=21;" parent="1" vertex="1">
          <mxGeometry x="305" y="320" width="115" height="30" as="geometry" />
        </mxCell>
        <mxCell id="LKOx65WNBInHvOir7Cke-13" value="" style="edgeStyle=orthogonalEdgeStyle;rounded=0;orthogonalLoop=1;jettySize=auto;html=1;fontSize=21;" parent="1" source="LKOx65WNBInHvOir7Cke-10" target="LKOx65WNBInHvOir7Cke-12" edge="1">
          <mxGeometry relative="1" as="geometry" />
        </mxCell>
        <mxCell id="LKOx65WNBInHvOir7Cke-10" value="" style="ellipse;whiteSpace=wrap;html=1;fontSize=21;" parent="1" vertex="1">
          <mxGeometry x="500" y="235.63" width="10" height="20" as="geometry" />
        </mxCell>
        <mxCell id="LKOx65WNBInHvOir7Cke-12" value="" style="ellipse;whiteSpace=wrap;html=1;fontSize=21;" parent="1" vertex="1">
          <mxGeometry x="538" y="234.38" width="10" height="21.25" as="geometry" />
        </mxCell>
        <mxCell id="LKOx65WNBInHvOir7Cke-20" value="" style="edgeStyle=orthogonalEdgeStyle;rounded=0;orthogonalLoop=1;jettySize=auto;html=1;fontSize=21;" parent="1" source="LKOx65WNBInHvOir7Cke-21" target="LKOx65WNBInHvOir7Cke-22" edge="1">
          <mxGeometry relative="1" as="geometry" />
        </mxCell>
        <mxCell id="LKOx65WNBInHvOir7Cke-21" value="" style="ellipse;whiteSpace=wrap;html=1;fontSize=21;" parent="1" vertex="1">
          <mxGeometry x="500" y="264.37" width="10" height="20" as="geometry" />
        </mxCell>
        <mxCell id="LKOx65WNBInHvOir7Cke-22" value="" style="ellipse;whiteSpace=wrap;html=1;fontSize=21;" parent="1" vertex="1">
          <mxGeometry x="538" y="264.37" width="10" height="21.25" as="geometry" />
        </mxCell>
        <mxCell id="LKOx65WNBInHvOir7Cke-28" value="" style="edgeStyle=orthogonalEdgeStyle;rounded=0;orthogonalLoop=1;jettySize=auto;html=1;fontSize=21;" parent="1" source="LKOx65WNBInHvOir7Cke-29" target="LKOx65WNBInHvOir7Cke-30" edge="1">
          <mxGeometry relative="1" as="geometry" />
        </mxCell>
        <mxCell id="LKOx65WNBInHvOir7Cke-29" value="" style="ellipse;whiteSpace=wrap;html=1;fontSize=21;" parent="1" vertex="1">
          <mxGeometry x="499" y="294.37" width="10" height="20" as="geometry" />
        </mxCell>
        <mxCell id="LKOx65WNBInHvOir7Cke-30" value="" style="ellipse;whiteSpace=wrap;html=1;fontSize=21;" parent="1" vertex="1">
          <mxGeometry x="537" y="294.37" width="10" height="21.25" as="geometry" />
        </mxCell>
        <mxCell id="LKOx65WNBInHvOir7Cke-31" value="" style="edgeStyle=orthogonalEdgeStyle;rounded=0;orthogonalLoop=1;jettySize=auto;html=1;fontSize=21;" parent="1" source="LKOx65WNBInHvOir7Cke-32" target="LKOx65WNBInHvOir7Cke-33" edge="1">
          <mxGeometry relative="1" as="geometry" />
        </mxCell>
        <mxCell id="LKOx65WNBInHvOir7Cke-32" value="" style="ellipse;whiteSpace=wrap;html=1;fontSize=21;" parent="1" vertex="1">
          <mxGeometry x="498" y="325.37" width="10" height="20" as="geometry" />
        </mxCell>
        <mxCell id="LKOx65WNBInHvOir7Cke-33" value="" style="ellipse;whiteSpace=wrap;html=1;fontSize=21;" parent="1" vertex="1">
          <mxGeometry x="536" y="325.37" width="10" height="21.25" as="geometry" />
        </mxCell>
        <mxCell id="LKOx65WNBInHvOir7Cke-44" value="" style="edgeStyle=orthogonalEdgeStyle;rounded=0;orthogonalLoop=1;jettySize=auto;html=1;fontSize=21;" parent="1" source="LKOx65WNBInHvOir7Cke-45" target="LKOx65WNBInHvOir7Cke-53" edge="1">
          <mxGeometry relative="1" as="geometry" />
        </mxCell>
        <mxCell id="LKOx65WNBInHvOir7Cke-45" value="[4]" style="rounded=0;whiteSpace=wrap;html=1;fontSize=21;" parent="1" vertex="1">
          <mxGeometry x="305" y="350" width="115" height="30" as="geometry" />
        </mxCell>
        <mxCell id="LKOx65WNBInHvOir7Cke-46" value="" style="edgeStyle=orthogonalEdgeStyle;rounded=0;orthogonalLoop=1;jettySize=auto;html=1;fontSize=21;" parent="1" source="LKOx65WNBInHvOir7Cke-47" target="LKOx65WNBInHvOir7Cke-56" edge="1">
          <mxGeometry relative="1" as="geometry" />
        </mxCell>
        <mxCell id="LKOx65WNBInHvOir7Cke-47" value="[5]" style="rounded=0;whiteSpace=wrap;html=1;fontSize=21;" parent="1" vertex="1">
          <mxGeometry x="305" y="380" width="115" height="30" as="geometry" />
        </mxCell>
        <mxCell id="LKOx65WNBInHvOir7Cke-48" style="edgeStyle=orthogonalEdgeStyle;rounded=0;orthogonalLoop=1;jettySize=auto;html=1;exitX=1;exitY=0.5;exitDx=0;exitDy=0;entryX=0;entryY=0.5;entryDx=0;entryDy=0;fontSize=21;" parent="1" source="LKOx65WNBInHvOir7Cke-49" target="LKOx65WNBInHvOir7Cke-59" edge="1">
          <mxGeometry relative="1" as="geometry" />
        </mxCell>
        <mxCell id="LKOx65WNBInHvOir7Cke-49" value="[6]" style="rounded=0;whiteSpace=wrap;html=1;fontSize=21;" parent="1" vertex="1">
          <mxGeometry x="305" y="410" width="115" height="30" as="geometry" />
        </mxCell>
        <mxCell id="LKOx65WNBInHvOir7Cke-50" style="edgeStyle=orthogonalEdgeStyle;rounded=0;orthogonalLoop=1;jettySize=auto;html=1;exitX=1;exitY=0.5;exitDx=0;exitDy=0;entryX=0;entryY=0.5;entryDx=0;entryDy=0;fontSize=21;" parent="1" source="LKOx65WNBInHvOir7Cke-51" target="LKOx65WNBInHvOir7Cke-62" edge="1">
          <mxGeometry relative="1" as="geometry" />
        </mxCell>
        <mxCell id="LKOx65WNBInHvOir7Cke-51" value="[7]" style="rounded=0;whiteSpace=wrap;html=1;fontSize=21;" parent="1" vertex="1">
          <mxGeometry x="305" y="440" width="115" height="30" as="geometry" />
        </mxCell>
        <mxCell id="LKOx65WNBInHvOir7Cke-52" value="" style="edgeStyle=orthogonalEdgeStyle;rounded=0;orthogonalLoop=1;jettySize=auto;html=1;fontSize=21;" parent="1" source="LKOx65WNBInHvOir7Cke-53" target="LKOx65WNBInHvOir7Cke-54" edge="1">
          <mxGeometry relative="1" as="geometry" />
        </mxCell>
        <mxCell id="LKOx65WNBInHvOir7Cke-53" value="" style="ellipse;whiteSpace=wrap;html=1;fontSize=21;" parent="1" vertex="1">
          <mxGeometry x="500" y="355.63" width="10" height="20" as="geometry" />
        </mxCell>
        <mxCell id="LKOx65WNBInHvOir7Cke-54" value="" style="ellipse;whiteSpace=wrap;html=1;fontSize=21;" parent="1" vertex="1">
          <mxGeometry x="538" y="354.38" width="10" height="21.25" as="geometry" />
        </mxCell>
        <mxCell id="LKOx65WNBInHvOir7Cke-55" value="" style="edgeStyle=orthogonalEdgeStyle;rounded=0;orthogonalLoop=1;jettySize=auto;html=1;fontSize=21;" parent="1" source="LKOx65WNBInHvOir7Cke-56" target="LKOx65WNBInHvOir7Cke-57" edge="1">
          <mxGeometry relative="1" as="geometry" />
        </mxCell>
        <mxCell id="LKOx65WNBInHvOir7Cke-56" value="" style="ellipse;whiteSpace=wrap;html=1;fontSize=21;" parent="1" vertex="1">
          <mxGeometry x="500" y="384.37" width="10" height="20" as="geometry" />
        </mxCell>
        <mxCell id="LKOx65WNBInHvOir7Cke-57" value="" style="ellipse;whiteSpace=wrap;html=1;fontSize=21;" parent="1" vertex="1">
          <mxGeometry x="538" y="384.37" width="10" height="21.25" as="geometry" />
        </mxCell>
        <mxCell id="LKOx65WNBInHvOir7Cke-58" value="" style="edgeStyle=orthogonalEdgeStyle;rounded=0;orthogonalLoop=1;jettySize=auto;html=1;fontSize=21;" parent="1" source="LKOx65WNBInHvOir7Cke-59" target="LKOx65WNBInHvOir7Cke-60" edge="1">
          <mxGeometry relative="1" as="geometry" />
        </mxCell>
        <mxCell id="LKOx65WNBInHvOir7Cke-59" value="" style="ellipse;whiteSpace=wrap;html=1;fontSize=21;" parent="1" vertex="1">
          <mxGeometry x="499" y="414.37" width="10" height="20" as="geometry" />
        </mxCell>
        <mxCell id="LKOx65WNBInHvOir7Cke-60" value="" style="ellipse;whiteSpace=wrap;html=1;fontSize=21;" parent="1" vertex="1">
          <mxGeometry x="537" y="414.37" width="10" height="21.25" as="geometry" />
        </mxCell>
        <mxCell id="LKOx65WNBInHvOir7Cke-61" value="" style="edgeStyle=orthogonalEdgeStyle;rounded=0;orthogonalLoop=1;jettySize=auto;html=1;fontSize=21;" parent="1" source="LKOx65WNBInHvOir7Cke-62" target="LKOx65WNBInHvOir7Cke-63" edge="1">
          <mxGeometry relative="1" as="geometry" />
        </mxCell>
        <mxCell id="LKOx65WNBInHvOir7Cke-62" value="" style="ellipse;whiteSpace=wrap;html=1;fontSize=21;" parent="1" vertex="1">
          <mxGeometry x="498" y="445.37" width="10" height="20" as="geometry" />
        </mxCell>
        <mxCell id="LKOx65WNBInHvOir7Cke-63" value="" style="ellipse;whiteSpace=wrap;html=1;fontSize=21;" parent="1" vertex="1">
          <mxGeometry x="536" y="445.37" width="10" height="21.25" as="geometry" />
        </mxCell>
        <mxCell id="LKOx65WNBInHvOir7Cke-64" value="" style="shape=flexArrow;endArrow=classic;html=1;rounded=0;fontSize=21;" parent="1" edge="1">
          <mxGeometry width="50" height="50" relative="1" as="geometry">
            <mxPoint x="560" y="349.31" as="sourcePoint" />
            <mxPoint x="650" y="349.31" as="targetPoint" />
          </mxGeometry>
        </mxCell>
        <mxCell id="LKOx65WNBInHvOir7Cke-65" value="" style="edgeStyle=orthogonalEdgeStyle;rounded=0;orthogonalLoop=1;jettySize=auto;html=1;fontSize=21;" parent="1" source="LKOx65WNBInHvOir7Cke-66" target="LKOx65WNBInHvOir7Cke-74" edge="1">
          <mxGeometry relative="1" as="geometry" />
        </mxCell>
        <mxCell id="LKOx65WNBInHvOir7Cke-66" value="000" style="rounded=0;whiteSpace=wrap;html=1;fontSize=21;" parent="1" vertex="1">
          <mxGeometry x="664" y="154.37" width="115" height="30" as="geometry" />
        </mxCell>
        <mxCell id="LKOx65WNBInHvOir7Cke-67" value="" style="edgeStyle=orthogonalEdgeStyle;rounded=0;orthogonalLoop=1;jettySize=auto;html=1;fontSize=21;" parent="1" source="LKOx65WNBInHvOir7Cke-68" target="LKOx65WNBInHvOir7Cke-77" edge="1">
          <mxGeometry relative="1" as="geometry" />
        </mxCell>
        <mxCell id="LKOx65WNBInHvOir7Cke-68" value="001" style="rounded=0;whiteSpace=wrap;html=1;fontSize=21;" parent="1" vertex="1">
          <mxGeometry x="664" y="184.37" width="115" height="30" as="geometry" />
        </mxCell>
        <mxCell id="LKOx65WNBInHvOir7Cke-69" style="edgeStyle=orthogonalEdgeStyle;rounded=0;orthogonalLoop=1;jettySize=auto;html=1;exitX=1;exitY=0.5;exitDx=0;exitDy=0;entryX=0;entryY=0.5;entryDx=0;entryDy=0;fontSize=21;" parent="1" source="LKOx65WNBInHvOir7Cke-70" target="LKOx65WNBInHvOir7Cke-80" edge="1">
          <mxGeometry relative="1" as="geometry" />
        </mxCell>
        <mxCell id="LKOx65WNBInHvOir7Cke-70" value="010" style="rounded=0;whiteSpace=wrap;html=1;fontSize=21;" parent="1" vertex="1">
          <mxGeometry x="664" y="214.37" width="115" height="30" as="geometry" />
        </mxCell>
        <mxCell id="LKOx65WNBInHvOir7Cke-71" style="edgeStyle=orthogonalEdgeStyle;rounded=0;orthogonalLoop=1;jettySize=auto;html=1;exitX=1;exitY=0.5;exitDx=0;exitDy=0;entryX=0;entryY=0.5;entryDx=0;entryDy=0;fontSize=21;" parent="1" source="LKOx65WNBInHvOir7Cke-72" target="LKOx65WNBInHvOir7Cke-83" edge="1">
          <mxGeometry relative="1" as="geometry" />
        </mxCell>
        <mxCell id="LKOx65WNBInHvOir7Cke-72" value="011" style="rounded=0;whiteSpace=wrap;html=1;fontSize=21;" parent="1" vertex="1">
          <mxGeometry x="664" y="244.37" width="115" height="30" as="geometry" />
        </mxCell>
        <mxCell id="LKOx65WNBInHvOir7Cke-73" value="" style="edgeStyle=orthogonalEdgeStyle;rounded=0;orthogonalLoop=1;jettySize=auto;html=1;fontSize=21;" parent="1" source="LKOx65WNBInHvOir7Cke-74" target="LKOx65WNBInHvOir7Cke-75" edge="1">
          <mxGeometry relative="1" as="geometry" />
        </mxCell>
        <mxCell id="LKOx65WNBInHvOir7Cke-74" value="" style="ellipse;whiteSpace=wrap;html=1;fontSize=21;" parent="1" vertex="1">
          <mxGeometry x="875" y="160" width="10" height="20" as="geometry" />
        </mxCell>
        <mxCell id="LKOx65WNBInHvOir7Cke-75" value="" style="ellipse;whiteSpace=wrap;html=1;fontSize=21;" parent="1" vertex="1">
          <mxGeometry x="913" y="158.75" width="10" height="21.25" as="geometry" />
        </mxCell>
        <mxCell id="LKOx65WNBInHvOir7Cke-76" value="" style="edgeStyle=orthogonalEdgeStyle;rounded=0;orthogonalLoop=1;jettySize=auto;html=1;fontSize=21;" parent="1" source="LKOx65WNBInHvOir7Cke-77" target="LKOx65WNBInHvOir7Cke-78" edge="1">
          <mxGeometry relative="1" as="geometry" />
        </mxCell>
        <mxCell id="LKOx65WNBInHvOir7Cke-77" value="" style="ellipse;whiteSpace=wrap;html=1;fontSize=21;" parent="1" vertex="1">
          <mxGeometry x="875" y="188.74" width="10" height="20" as="geometry" />
        </mxCell>
        <mxCell id="LKOx65WNBInHvOir7Cke-78" value="" style="ellipse;whiteSpace=wrap;html=1;fontSize=21;" parent="1" vertex="1">
          <mxGeometry x="913" y="188.74" width="10" height="21.25" as="geometry" />
        </mxCell>
        <mxCell id="LKOx65WNBInHvOir7Cke-79" value="" style="edgeStyle=orthogonalEdgeStyle;rounded=0;orthogonalLoop=1;jettySize=auto;html=1;fontSize=21;" parent="1" source="LKOx65WNBInHvOir7Cke-80" target="LKOx65WNBInHvOir7Cke-81" edge="1">
          <mxGeometry relative="1" as="geometry" />
        </mxCell>
        <mxCell id="LKOx65WNBInHvOir7Cke-80" value="" style="ellipse;whiteSpace=wrap;html=1;fontSize=21;" parent="1" vertex="1">
          <mxGeometry x="874" y="218.74" width="10" height="20" as="geometry" />
        </mxCell>
        <mxCell id="LKOx65WNBInHvOir7Cke-81" value="" style="ellipse;whiteSpace=wrap;html=1;fontSize=21;" parent="1" vertex="1">
          <mxGeometry x="912" y="218.74" width="10" height="21.25" as="geometry" />
        </mxCell>
        <mxCell id="LKOx65WNBInHvOir7Cke-82" value="" style="edgeStyle=orthogonalEdgeStyle;rounded=0;orthogonalLoop=1;jettySize=auto;html=1;fontSize=21;" parent="1" source="LKOx65WNBInHvOir7Cke-83" target="LKOx65WNBInHvOir7Cke-84" edge="1">
          <mxGeometry relative="1" as="geometry" />
        </mxCell>
        <mxCell id="LKOx65WNBInHvOir7Cke-83" value="" style="ellipse;whiteSpace=wrap;html=1;fontSize=21;" parent="1" vertex="1">
          <mxGeometry x="873" y="249.74" width="10" height="20" as="geometry" />
        </mxCell>
        <mxCell id="LKOx65WNBInHvOir7Cke-84" value="" style="ellipse;whiteSpace=wrap;html=1;fontSize=21;" parent="1" vertex="1">
          <mxGeometry x="911" y="249.74" width="10" height="21.25" as="geometry" />
        </mxCell>
        <mxCell id="LKOx65WNBInHvOir7Cke-85" value="" style="edgeStyle=orthogonalEdgeStyle;rounded=0;orthogonalLoop=1;jettySize=auto;html=1;fontSize=21;" parent="1" source="LKOx65WNBInHvOir7Cke-86" target="LKOx65WNBInHvOir7Cke-94" edge="1">
          <mxGeometry relative="1" as="geometry" />
        </mxCell>
        <mxCell id="LKOx65WNBInHvOir7Cke-86" value="100" style="rounded=0;whiteSpace=wrap;html=1;fontSize=21;" parent="1" vertex="1">
          <mxGeometry x="664" y="274.37" width="115" height="30" as="geometry" />
        </mxCell>
        <mxCell id="LKOx65WNBInHvOir7Cke-87" value="" style="edgeStyle=orthogonalEdgeStyle;rounded=0;orthogonalLoop=1;jettySize=auto;html=1;fontSize=21;" parent="1" source="LKOx65WNBInHvOir7Cke-88" target="LKOx65WNBInHvOir7Cke-97" edge="1">
          <mxGeometry relative="1" as="geometry" />
        </mxCell>
        <mxCell id="LKOx65WNBInHvOir7Cke-88" value="101" style="rounded=0;whiteSpace=wrap;html=1;fontSize=21;" parent="1" vertex="1">
          <mxGeometry x="664" y="304.37" width="115" height="30" as="geometry" />
        </mxCell>
        <mxCell id="LKOx65WNBInHvOir7Cke-89" style="edgeStyle=orthogonalEdgeStyle;rounded=0;orthogonalLoop=1;jettySize=auto;html=1;exitX=1;exitY=0.5;exitDx=0;exitDy=0;entryX=0;entryY=0.5;entryDx=0;entryDy=0;fontSize=21;" parent="1" source="LKOx65WNBInHvOir7Cke-90" target="LKOx65WNBInHvOir7Cke-100" edge="1">
          <mxGeometry relative="1" as="geometry" />
        </mxCell>
        <mxCell id="LKOx65WNBInHvOir7Cke-90" value="110" style="rounded=0;whiteSpace=wrap;html=1;fontSize=21;" parent="1" vertex="1">
          <mxGeometry x="664" y="334.37" width="115" height="30" as="geometry" />
        </mxCell>
        <mxCell id="LKOx65WNBInHvOir7Cke-91" style="edgeStyle=orthogonalEdgeStyle;rounded=0;orthogonalLoop=1;jettySize=auto;html=1;exitX=1;exitY=0.5;exitDx=0;exitDy=0;entryX=0;entryY=0.5;entryDx=0;entryDy=0;fontSize=21;" parent="1" source="LKOx65WNBInHvOir7Cke-92" target="LKOx65WNBInHvOir7Cke-103" edge="1">
          <mxGeometry relative="1" as="geometry" />
        </mxCell>
        <mxCell id="LKOx65WNBInHvOir7Cke-92" value="111" style="rounded=0;whiteSpace=wrap;html=1;fontSize=21;" parent="1" vertex="1">
          <mxGeometry x="664" y="364.37" width="115" height="30" as="geometry" />
        </mxCell>
        <mxCell id="LKOx65WNBInHvOir7Cke-93" value="" style="edgeStyle=orthogonalEdgeStyle;rounded=0;orthogonalLoop=1;jettySize=auto;html=1;fontSize=21;" parent="1" source="LKOx65WNBInHvOir7Cke-94" target="LKOx65WNBInHvOir7Cke-95" edge="1">
          <mxGeometry relative="1" as="geometry" />
        </mxCell>
        <mxCell id="LKOx65WNBInHvOir7Cke-94" value="" style="ellipse;whiteSpace=wrap;html=1;fontSize=21;" parent="1" vertex="1">
          <mxGeometry x="875" y="280" width="10" height="20" as="geometry" />
        </mxCell>
        <mxCell id="LKOx65WNBInHvOir7Cke-95" value="" style="ellipse;whiteSpace=wrap;html=1;fontSize=21;" parent="1" vertex="1">
          <mxGeometry x="913" y="278.75" width="10" height="21.25" as="geometry" />
        </mxCell>
        <mxCell id="LKOx65WNBInHvOir7Cke-96" value="" style="edgeStyle=orthogonalEdgeStyle;rounded=0;orthogonalLoop=1;jettySize=auto;html=1;fontSize=21;" parent="1" source="LKOx65WNBInHvOir7Cke-97" target="LKOx65WNBInHvOir7Cke-98" edge="1">
          <mxGeometry relative="1" as="geometry" />
        </mxCell>
        <mxCell id="LKOx65WNBInHvOir7Cke-97" value="" style="ellipse;whiteSpace=wrap;html=1;fontSize=21;" parent="1" vertex="1">
          <mxGeometry x="875" y="308.74" width="10" height="20" as="geometry" />
        </mxCell>
        <mxCell id="LKOx65WNBInHvOir7Cke-98" value="" style="ellipse;whiteSpace=wrap;html=1;fontSize=21;" parent="1" vertex="1">
          <mxGeometry x="913" y="308.74" width="10" height="21.25" as="geometry" />
        </mxCell>
        <mxCell id="LKOx65WNBInHvOir7Cke-99" value="" style="edgeStyle=orthogonalEdgeStyle;rounded=0;orthogonalLoop=1;jettySize=auto;html=1;fontSize=21;" parent="1" source="LKOx65WNBInHvOir7Cke-100" target="LKOx65WNBInHvOir7Cke-101" edge="1">
          <mxGeometry relative="1" as="geometry" />
        </mxCell>
        <mxCell id="LKOx65WNBInHvOir7Cke-100" value="" style="ellipse;whiteSpace=wrap;html=1;fontSize=21;" parent="1" vertex="1">
          <mxGeometry x="874" y="338.74" width="10" height="20" as="geometry" />
        </mxCell>
        <mxCell id="LKOx65WNBInHvOir7Cke-101" value="" style="ellipse;whiteSpace=wrap;html=1;fontSize=21;" parent="1" vertex="1">
          <mxGeometry x="912" y="338.74" width="10" height="21.25" as="geometry" />
        </mxCell>
        <mxCell id="LKOx65WNBInHvOir7Cke-102" value="" style="edgeStyle=orthogonalEdgeStyle;rounded=0;orthogonalLoop=1;jettySize=auto;html=1;fontSize=21;" parent="1" source="LKOx65WNBInHvOir7Cke-103" target="LKOx65WNBInHvOir7Cke-104" edge="1">
          <mxGeometry relative="1" as="geometry" />
        </mxCell>
        <mxCell id="LKOx65WNBInHvOir7Cke-103" value="" style="ellipse;whiteSpace=wrap;html=1;fontSize=21;" parent="1" vertex="1">
          <mxGeometry x="873" y="369.74" width="10" height="20" as="geometry" />
        </mxCell>
        <mxCell id="LKOx65WNBInHvOir7Cke-104" value="" style="ellipse;whiteSpace=wrap;html=1;fontSize=21;" parent="1" vertex="1">
          <mxGeometry x="911" y="369.74" width="10" height="21.25" as="geometry" />
        </mxCell>
        <mxCell id="LKOx65WNBInHvOir7Cke-105" value="" style="edgeStyle=orthogonalEdgeStyle;rounded=0;orthogonalLoop=1;jettySize=auto;html=1;fontSize=21;entryX=0.5;entryY=0;entryDx=0;entryDy=0;" parent="1" source="LKOx65WNBInHvOir7Cke-106" target="LKOx65WNBInHvOir7Cke-74" edge="1">
          <mxGeometry relative="1" as="geometry">
            <mxPoint x="1140" y="60" as="targetPoint" />
            <Array as="points">
              <mxPoint x="1190" y="435" />
              <mxPoint x="1190" y="90" />
              <mxPoint x="880" y="90" />
            </Array>
          </mxGeometry>
        </mxCell>
        <mxCell id="LKOx65WNBInHvOir7Cke-106" value="1000" style="rounded=0;whiteSpace=wrap;html=1;fontSize=21;" parent="1" vertex="1">
          <mxGeometry x="662" y="420" width="115" height="30" as="geometry" />
        </mxCell>
        <mxCell id="LKOx65WNBInHvOir7Cke-107" value="" style="edgeStyle=orthogonalEdgeStyle;rounded=0;orthogonalLoop=1;jettySize=auto;html=1;fontSize=21;" parent="1" source="LKOx65WNBInHvOir7Cke-108" edge="1">
          <mxGeometry relative="1" as="geometry">
            <mxPoint x="850" y="200" as="targetPoint" />
            <Array as="points">
              <mxPoint x="1180" y="465" />
              <mxPoint x="1180" y="100" />
            </Array>
          </mxGeometry>
        </mxCell>
        <mxCell id="LKOx65WNBInHvOir7Cke-108" value="1001" style="rounded=0;whiteSpace=wrap;html=1;fontSize=21;" parent="1" vertex="1">
          <mxGeometry x="662" y="450" width="115" height="30" as="geometry" />
        </mxCell>
        <mxCell id="LKOx65WNBInHvOir7Cke-109" style="edgeStyle=orthogonalEdgeStyle;rounded=0;orthogonalLoop=1;jettySize=auto;html=1;exitX=1;exitY=0.5;exitDx=0;exitDy=0;fontSize=21;" parent="1" source="LKOx65WNBInHvOir7Cke-110" edge="1">
          <mxGeometry relative="1" as="geometry">
            <mxPoint x="840" y="230" as="targetPoint" />
            <Array as="points">
              <mxPoint x="1170" y="495" />
              <mxPoint x="1170" y="110" />
            </Array>
          </mxGeometry>
        </mxCell>
        <mxCell id="LKOx65WNBInHvOir7Cke-110" value="1010" style="rounded=0;whiteSpace=wrap;html=1;fontSize=21;" parent="1" vertex="1">
          <mxGeometry x="662" y="480" width="115" height="30" as="geometry" />
        </mxCell>
        <mxCell id="LKOx65WNBInHvOir7Cke-111" style="edgeStyle=orthogonalEdgeStyle;rounded=0;orthogonalLoop=1;jettySize=auto;html=1;exitX=1;exitY=0.5;exitDx=0;exitDy=0;fontSize=21;" parent="1" source="LKOx65WNBInHvOir7Cke-112" edge="1">
          <mxGeometry relative="1" as="geometry">
            <mxPoint x="830" y="260" as="targetPoint" />
            <Array as="points">
              <mxPoint x="1160" y="525" />
              <mxPoint x="1160" y="120" />
            </Array>
          </mxGeometry>
        </mxCell>
        <mxCell id="LKOx65WNBInHvOir7Cke-112" value="1011" style="rounded=0;whiteSpace=wrap;html=1;fontSize=21;" parent="1" vertex="1">
          <mxGeometry x="662" y="510" width="115" height="30" as="geometry" />
        </mxCell>
        <mxCell id="LKOx65WNBInHvOir7Cke-125" value="" style="edgeStyle=orthogonalEdgeStyle;rounded=0;orthogonalLoop=1;jettySize=auto;html=1;fontSize=21;" parent="1" source="LKOx65WNBInHvOir7Cke-126" edge="1">
          <mxGeometry relative="1" as="geometry">
            <mxPoint x="820" y="290" as="targetPoint" />
            <Array as="points">
              <mxPoint x="1150" y="555" />
              <mxPoint x="1150" y="130" />
            </Array>
          </mxGeometry>
        </mxCell>
        <mxCell id="LKOx65WNBInHvOir7Cke-126" value="1100" style="rounded=0;whiteSpace=wrap;html=1;fontSize=21;" parent="1" vertex="1">
          <mxGeometry x="662" y="540" width="115" height="30" as="geometry" />
        </mxCell>
        <mxCell id="LKOx65WNBInHvOir7Cke-127" value="" style="edgeStyle=orthogonalEdgeStyle;rounded=0;orthogonalLoop=1;jettySize=auto;html=1;fontSize=21;" parent="1" source="LKOx65WNBInHvOir7Cke-128" edge="1">
          <mxGeometry relative="1" as="geometry">
            <mxPoint x="810" y="320" as="targetPoint" />
            <Array as="points">
              <mxPoint x="1140" y="585" />
              <mxPoint x="1140" y="140" />
            </Array>
          </mxGeometry>
        </mxCell>
        <mxCell id="LKOx65WNBInHvOir7Cke-128" value="1101" style="rounded=0;whiteSpace=wrap;html=1;fontSize=21;" parent="1" vertex="1">
          <mxGeometry x="662" y="570" width="115" height="30" as="geometry" />
        </mxCell>
        <mxCell id="LKOx65WNBInHvOir7Cke-129" style="edgeStyle=orthogonalEdgeStyle;rounded=0;orthogonalLoop=1;jettySize=auto;html=1;exitX=1;exitY=0.5;exitDx=0;exitDy=0;fontSize=21;" parent="1" source="LKOx65WNBInHvOir7Cke-130" edge="1">
          <mxGeometry relative="1" as="geometry">
            <mxPoint x="800" y="350" as="targetPoint" />
            <Array as="points">
              <mxPoint x="1130" y="615" />
              <mxPoint x="1130" y="150" />
            </Array>
          </mxGeometry>
        </mxCell>
        <mxCell id="LKOx65WNBInHvOir7Cke-130" value="1110" style="rounded=0;whiteSpace=wrap;html=1;fontSize=21;" parent="1" vertex="1">
          <mxGeometry x="662" y="600" width="115" height="30" as="geometry" />
        </mxCell>
        <mxCell id="LKOx65WNBInHvOir7Cke-131" style="edgeStyle=orthogonalEdgeStyle;rounded=0;orthogonalLoop=1;jettySize=auto;html=1;exitX=1;exitY=0.5;exitDx=0;exitDy=0;fontSize=21;" parent="1" source="LKOx65WNBInHvOir7Cke-132" edge="1">
          <mxGeometry relative="1" as="geometry">
            <mxPoint x="790" y="380" as="targetPoint" />
            <Array as="points">
              <mxPoint x="1120" y="645" />
              <mxPoint x="1120" y="160" />
            </Array>
          </mxGeometry>
        </mxCell>
        <mxCell id="LKOx65WNBInHvOir7Cke-132" value="1111" style="rounded=0;whiteSpace=wrap;html=1;fontSize=21;" parent="1" vertex="1">
          <mxGeometry x="662" y="630" width="115" height="30" as="geometry" />
        </mxCell>
        <mxCell id="VgvkPNt3fT9_3LKiU-u2-1" value="测试notion同步更新&amp;nbsp;" style="text;html=1;align=center;verticalAlign=middle;resizable=0;points=[];autosize=1;strokeColor=none;fillColor=none;" vertex="1" parent="1">
          <mxGeometry x="265" y="518" width="130" height="30" as="geometry" />
        </mxCell>
      </root>
    </mxGraphModel>
  </diagram>
</mxfile>
